<svg fill="none" height="60" viewBox="0 0 24 24" width="60" xmlns="http://www.w3.org/2000/svg"><g stroke="#1c274c" stroke-width="1.5"><path d="m9.78133 3.89027c.56387-.48053.84577-.72079 1.14057-.86168.6818-.32588 1.4744-.32588 2.1562 0 .2948.14089.5767.38115 1.1406.86168.2244.19125.3366.28688.4565.3672.2747.18413.5832.31192.9076.37597.1416.02795.2885.03968.5825.06313.7385.05893 1.1077.0884 1.4158.19721.7125.25168 1.273.81213 1.5247 1.52466.1088.30807.1382.67732.1972 1.41582.0234.29393.0351.44089.0631.58243.064.32445.1918.63296.376.90768.0803.11984.1759.23205.3672.45647.4805.56386.7208.84586.8617 1.14056.3258.6818.3258 1.4744 0 2.1562-.1409.2948-.3812.5767-.8617 1.1406-.1913.2244-.2869.3366-.3672.4565-.1842.2747-.312.5832-.376.9077-.028.1415-.0397.2885-.0631.5824-.059.7385-.0884 1.1077-.1972 1.4158-.2517.7125-.8122 1.273-1.5247 1.5247-.3081.1088-.6773.1382-1.4158.1972-.294.0234-.4409.0352-.5825.0631-.3244.0641-.6329.1918-.9076.376-.1199.0803-.2321.1759-.4565.3672-.5639.4805-.8458.7208-1.1406.8617-.6818.3258-1.4744.3258-2.1562 0-.2948-.1409-.5767-.3812-1.14057-.8617-.22442-.1913-.33664-.2869-.45648-.3672-.27471-.1842-.58322-.3119-.90767-.376-.14154-.0279-.2885-.0397-.58243-.0631-.7385-.059-1.10776-.0884-1.41582-.1972-.71253-.2517-1.27299-.8122-1.52466-1.5247-.10881-.3081-.13828-.6773-.19721-1.4158-.02346-.2939-.03518-.4409-.06313-.5824-.06405-.3245-.19184-.633-.37597-.9077-.08032-.1199-.17595-.2321-.3672-.4565-.48053-.5639-.72079-.8458-.86169-1.1406-.32587-.6818-.32587-1.4744 0-2.1562.1409-.2948.38116-.5767.86169-1.14056.19125-.22442.28688-.33663.3672-.45647.18413-.27472.31192-.58323.37597-.90768.02795-.14154.03967-.2885.06313-.58243.05893-.7385.0884-1.10775.19721-1.41582.25167-.71253.81213-1.27298 1.52466-1.52466.30806-.10881.67732-.13828 1.41582-.19721.29393-.02345.44089-.03518.58243-.06313.32445-.06405.63296-.19184.90767-.37597.11985-.08032.23206-.17595.45648-.3672z" opacity=".5"/><path d="m8.5 12.5 2 2 5-5" stroke-linecap="round" stroke-linejoin="round"/></g></svg>